<svg width="21" height="20" viewBox="0 0 21 20" fill="none" xmlns="http://www.w3.org/2000/svg">
<path d="M10.0892 1.69995C5.50586 1.69995 1.75586 5.44162 1.75586 10.05C1.75586 14.2166 4.80586 17.6749 8.78919 18.2999V12.4666H6.67253V10.05H8.78919V8.20828C8.78919 6.11662 10.0309 4.96662 11.9392 4.96662C12.8475 4.96662 13.7975 5.12495 13.7975 5.12495V7.18328H12.7475C11.7142 7.18328 11.3892 7.82495 11.3892 8.48328V10.05H13.7059L13.3309 12.4666H11.3892V18.2999C13.3529 17.9898 15.141 16.9879 16.4308 15.475C17.7206 13.9621 18.427 12.038 18.4225 10.05C18.4225 5.44162 14.6725 1.69995 10.0892 1.69995Z" fill="#5B687C"/>
</svg>
