<svg width="21" height="20" viewBox="0 0 21 20" fill="none" xmlns="http://www.w3.org/2000/svg">
<path d="M6.5887 1.66675H13.5887C16.2554 1.66675 18.422 3.83341 18.422 6.50008V13.5001C18.422 14.782 17.9128 16.0113 17.0064 16.9178C16.1 17.8242 14.8706 18.3334 13.5887 18.3334H6.5887C3.92204 18.3334 1.75537 16.1667 1.75537 13.5001V6.50008C1.75537 5.2182 2.2646 3.98882 3.17102 3.0824C4.07745 2.17597 5.30682 1.66675 6.5887 1.66675ZM6.42204 3.33341C5.62639 3.33341 4.86333 3.64949 4.30072 4.21209C3.73811 4.7747 3.42204 5.53777 3.42204 6.33341V13.6667C3.42204 15.3251 4.7637 16.6667 6.42204 16.6667H13.7554C14.551 16.6667 15.3141 16.3507 15.8767 15.7881C16.4393 15.2255 16.7554 14.4624 16.7554 13.6667V6.33341C16.7554 4.67508 15.4137 3.33341 13.7554 3.33341H6.42204ZM14.4637 4.58341C14.74 4.58341 15.0049 4.69316 15.2003 4.88851C15.3956 5.08386 15.5054 5.34881 15.5054 5.62508C15.5054 5.90135 15.3956 6.1663 15.2003 6.36165C15.0049 6.557 14.74 6.66675 14.4637 6.66675C14.1874 6.66675 13.9225 6.557 13.7271 6.36165C13.5318 6.1663 13.422 5.90135 13.422 5.62508C13.422 5.34881 13.5318 5.08386 13.7271 4.88851C13.9225 4.69316 14.1874 4.58341 14.4637 4.58341ZM10.0887 5.83341C11.1938 5.83341 12.2536 6.2724 13.035 7.0538C13.8164 7.8352 14.2554 8.89501 14.2554 10.0001C14.2554 11.1052 13.8164 12.165 13.035 12.9464C12.2536 13.7278 11.1938 14.1667 10.0887 14.1667C8.98364 14.1667 7.92383 13.7278 7.14243 12.9464C6.36102 12.165 5.92204 11.1052 5.92204 10.0001C5.92204 8.89501 6.36102 7.8352 7.14243 7.0538C7.92383 6.2724 8.98364 5.83341 10.0887 5.83341ZM10.0887 7.50008C9.42566 7.50008 8.78978 7.76347 8.32094 8.23231C7.8521 8.70115 7.5887 9.33704 7.5887 10.0001C7.5887 10.6631 7.8521 11.299 8.32094 11.7678C8.78978 12.2367 9.42566 12.5001 10.0887 12.5001C10.7517 12.5001 11.3876 12.2367 11.8565 11.7678C12.3253 11.299 12.5887 10.6631 12.5887 10.0001C12.5887 9.33704 12.3253 8.70115 11.8565 8.23231C11.3876 7.76347 10.7517 7.50008 10.0887 7.50008Z" fill="#5B687C"/>
</svg>
