<svg width="21" height="20" viewBox="0 0 21 20" fill="none" xmlns="http://www.w3.org/2000/svg">
<path d="M10.1224 1.66675C5.57236 1.66675 1.86403 5.37508 1.86403 9.92508C1.86403 11.3834 2.24736 12.8001 2.96403 14.0501L1.79736 18.3334L6.17236 17.1834C7.3807 17.8417 8.73903 18.1917 10.1224 18.1917C14.6724 18.1917 18.3807 14.4834 18.3807 9.93341C18.3807 7.72508 17.5224 5.65008 15.964 4.09175C14.4057 2.52508 12.3307 1.66675 10.1224 1.66675ZM10.1307 3.05841C11.964 3.05841 13.6807 3.77508 14.9807 5.07508C16.2724 6.37508 16.989 8.10008 16.989 9.93341C16.989 13.7167 13.9057 16.7917 10.1224 16.7917C8.88903 16.7917 7.6807 16.4667 6.6307 15.8334L6.3807 15.6917L3.7807 16.3751L4.47236 13.8417L4.3057 13.5751C3.62236 12.5001 3.2557 11.2251 3.2557 9.92508C3.26403 6.14175 6.33903 3.05841 10.1307 3.05841ZM7.19736 6.10841C7.06403 6.10841 6.83903 6.15841 6.64736 6.36675C6.46403 6.57508 5.92236 7.08341 5.92236 8.09175C5.92236 9.10841 6.66403 10.0834 6.7557 10.2251C6.87236 10.3667 8.22236 12.4501 10.2974 13.3334C10.789 13.5584 11.1724 13.6834 11.4724 13.7751C11.964 13.9334 12.414 13.9084 12.7724 13.8584C13.1724 13.8001 13.989 13.3584 14.164 12.8751C14.339 12.3917 14.339 11.9834 14.289 11.8917C14.2307 11.8084 14.0974 11.7584 13.889 11.6667C13.6807 11.5501 12.664 11.0501 12.4807 10.9834C12.289 10.9167 12.1724 10.8834 12.014 11.0834C11.8807 11.2917 11.4807 11.7584 11.364 11.8917C11.239 12.0334 11.1224 12.0501 10.9224 11.9501C10.7057 11.8417 10.039 11.6251 9.2557 10.9251C8.63903 10.3751 8.2307 9.70008 8.1057 9.49175C8.0057 9.29175 8.09736 9.16675 8.19736 9.07508C8.28903 8.98341 8.42236 8.83341 8.5057 8.70841C8.61403 8.59175 8.64736 8.50008 8.71403 8.36675C8.7807 8.22508 8.74736 8.10841 8.69736 8.00841C8.64736 7.91675 8.2307 6.88341 8.0557 6.47508C7.88903 6.07508 7.72236 6.12508 7.58903 6.11675C7.47236 6.11675 7.33903 6.10841 7.19736 6.10841Z" fill="#5B687C"/>
</svg>
