<svg width="17" height="16" viewBox="0 0 17 16" fill="none" xmlns="http://www.w3.org/2000/svg">
<path d="M14.7999 7.22126V13C14.7998 13.1812 14.7506 13.3591 14.6577 13.5147C14.5648 13.6703 14.4316 13.7979 14.2721 13.8839C14.1276 13.9622 13.9655 14.0021 13.8012 13.9999H10.7977C10.6651 13.9999 10.5379 13.9473 10.4441 13.8535C10.3504 13.7597 10.2977 13.6326 10.2977 13.4999V10.4995C10.2977 10.3669 10.245 10.2397 10.1512 10.146C10.0575 10.0522 9.93029 9.99951 9.79768 9.99951H7.79768C7.66508 9.99951 7.5379 10.0522 7.44413 10.146C7.35036 10.2397 7.29768 10.3669 7.29768 10.4995V13.4999C7.29768 13.6326 7.24501 13.7597 7.15124 13.8535C7.05747 13.9473 6.93029 13.9999 6.79768 13.9999H3.8C3.65823 14.0003 3.51802 13.9704 3.38877 13.9121C3.25952 13.8539 3.1442 13.7687 3.05056 13.6623C2.88617 13.4721 2.79701 13.2285 2.79987 12.9771V7.2212C2.79998 7.08187 2.82915 6.9441 2.8855 6.81669C2.94186 6.68927 3.02417 6.57501 3.12718 6.4812L8.12675 1.93539C8.31039 1.76717 8.5504 1.67385 8.79944 1.67383C9.04849 1.6738 9.2885 1.76708 9.47218 1.93526L14.4726 6.48126C14.5756 6.57509 14.6579 6.68935 14.7142 6.81677C14.7706 6.94418 14.7998 7.08194 14.7999 7.22126Z" fill="#1D4ED8"/>
</svg>
