<svg width="47" height="39" viewBox="0 0 47 39" fill="none" xmlns="http://www.w3.org/2000/svg">
<path d="M39.1665 13.4666L23.4998 21.3833L7.83317 13.4666V10.3L23.4998 18.2166L39.1665 10.3M39.1665 7.1333H7.83317C5.65942 7.1333 3.9165 8.54247 3.9165 10.3V29.3C3.9165 30.1398 4.32915 30.9453 5.06367 31.5391C5.79819 32.133 6.79441 32.4666 7.83317 32.4666H39.1665C40.2053 32.4666 41.2015 32.133 41.936 31.5391C42.6705 30.9453 43.0832 30.1398 43.0832 29.3V10.3C43.0832 9.46012 42.6705 8.65466 41.936 8.0608C41.2015 7.46693 40.2053 7.1333 39.1665 7.1333Z" fill="#10B981"/>
</svg>
