<svg width="25" height="25" viewBox="0 0 25 25" fill="none" xmlns="http://www.w3.org/2000/svg">
<path d="M9.36758 3.22864C9.89268 3.07032 10.4562 3.09662 10.9642 3.30316C11.4723 3.50971 11.8943 3.88404 12.16 4.36384L12.25 4.54264L13.0432 6.30784C13.2843 6.84362 13.3625 7.43845 13.2682 8.01836C13.1739 8.59827 12.9112 9.13765 12.5128 9.56944L12.3544 9.72784L11.1016 10.8954C10.876 11.109 11.0452 11.9358 11.8624 13.3494C12.5956 14.6214 13.1944 15.2154 13.4872 15.2478H13.5388L13.6024 15.2358L16.0624 14.4834C16.393 14.382 16.7458 14.378 17.0786 14.4719C17.4115 14.5657 17.7102 14.7535 17.9392 15.0126L18.0496 15.1506L19.6768 17.4066C19.9961 17.8487 20.1553 18.3863 20.1283 18.931C20.1012 19.4756 19.8895 19.9948 19.528 20.403L19.3816 20.5542L18.73 21.171C18.1459 21.7241 17.4153 22.0979 16.6251 22.2479C15.8348 22.3978 15.0181 22.3177 14.272 22.017C11.95 21.081 9.84038 18.9426 7.92398 15.6234C6.00398 12.2958 5.20598 9.39544 5.56238 6.91144C5.67033 6.16042 5.97971 5.45267 6.45765 4.86339C6.93558 4.2741 7.56422 3.82529 8.27678 3.56464L8.50838 3.48784L9.36758 3.22864Z" fill="white"/>
</svg>
