<svg width="25" height="25" viewBox="0 0 25 25" fill="none" xmlns="http://www.w3.org/2000/svg">
<path d="M17.5723 11.2827V5.28271C17.5723 4.18271 16.6723 3.28271 15.5723 3.28271H9.57227C8.47227 3.28271 7.57227 4.18271 7.57227 5.28271V7.28271H5.57227C4.47227 7.28271 3.57227 8.18271 3.57227 9.28271V19.2827C3.57227 20.3827 4.47227 21.2827 5.57227 21.2827H11.5723V17.2827H13.5723V21.2827H19.5723C20.6723 21.2827 21.5723 20.3827 21.5723 19.2827V13.2827C21.5723 12.1827 20.6723 11.2827 19.5723 11.2827H17.5723ZM7.57227 19.2827H5.57227V17.2827H7.57227V19.2827ZM7.57227 15.2827H5.57227V13.2827H7.57227V15.2827ZM7.57227 11.2827H5.57227V9.28271H7.57227V11.2827ZM11.5723 15.2827H9.57227V13.2827H11.5723V15.2827ZM11.5723 11.2827H9.57227V9.28271H11.5723V11.2827ZM11.5723 7.28271H9.57227V5.28271H11.5723V7.28271ZM15.5723 15.2827H13.5723V13.2827H15.5723V15.2827ZM15.5723 11.2827H13.5723V9.28271H15.5723V11.2827ZM15.5723 7.28271H13.5723V5.28271H15.5723V7.28271ZM19.5723 19.2827H17.5723V17.2827H19.5723V19.2827ZM19.5723 15.2827H17.5723V13.2827H19.5723V15.2827Z" fill="#888B97"/>
</svg>
