<svg width="41" height="36" viewBox="0 0 41 36" fill="none" xmlns="http://www.w3.org/2000/svg">
<path d="M26.0478 24.2936L28.9178 21.8436C29.3043 21.5177 29.7934 21.2946 30.3256 21.2014C30.8578 21.1082 31.4103 21.1489 31.9159 21.3186L35.4137 22.5108C35.9247 22.6878 36.3628 22.9901 36.6729 23.3793C36.983 23.7686 37.1512 24.2275 37.1562 24.6983V30.167C37.1532 30.4873 37.0744 30.8037 36.9244 31.0972C36.7744 31.3907 36.5564 31.6553 36.2835 31.875C36.0105 32.0947 35.6883 32.265 35.3363 32.3756C34.9843 32.4862 34.6096 32.5348 34.235 32.5186C9.72466 31.217 4.77904 13.4983 3.84372 6.71704C3.80031 6.38403 3.83998 6.04695 3.96012 5.72797C4.08027 5.40899 4.27817 5.11534 4.54081 4.86634C4.80345 4.61734 5.12487 4.41864 5.48392 4.28329C5.84298 4.14795 6.23154 4.07904 6.62404 4.0811H12.8125C13.3647 4.08249 13.9038 4.22489 14.3605 4.48998C14.8171 4.75506 15.1704 5.13071 15.375 5.5686L16.7715 8.55454C16.9769 8.98446 17.0292 9.45649 16.9221 9.91167C16.815 10.3669 16.5532 10.785 16.1693 11.1139L13.2993 13.5639C13.2993 13.5639 14.9522 23.1123 26.0478 24.2936Z" fill="#10B981"/>
</svg>
