<?xml version="1.0" encoding="UTF-8" standalone="no"?>
<svg
   width="100%"
   height="50%"
   viewBox="0 0 517 377"
   fill="none"
   version="1.1"
   id="svg163"
   xmlSpace="preserve"
   xmlns="http://www.w3.org/2000/svg"
   xmlnsSvg="http://www.w3.org/2000/svg"><g
     opacity="0.3"
     filter="url(#filter0_f_140_13)"
     id="g152"
     transform="translate(-159.74576,-135.7839)"><path
       fill-rule="evenodd"
       clip-rule="evenodd"
       d="m 377.438,143.183 c -9.472,19.155 -31.151,33.808 -50.787,49.429 -16.918,13.458 -34.947,25.456 -56.429,35.864 -23.928,11.593 -46.494,27.727 -76.405,28.494 -30.007,0.77 -55.208,-13.558 -79.998,-24.483 C 90.5108,222.216 73.9145,208.063 53.8223,195.277 26.3231,177.777 -21.1349,167.848 -26.5141,143.183 -31.7144,119.339 6.03482,100.832 29.0926,81.8874 49.5281,65.0969 72.3382,50.2252 100.404,38.9029 c 28.819,-11.6264 59.775,-26.6547 93.413,-23.4694 33.584,3.1802 47.863,30.7829 78.805,39.7776 36.073,10.486 89.836,-3.9775 113.937,16.251 23.061,19.3546 2.377,48.4699 -9.121,71.7209 z"
       fill="#82ffe8"
       id="path150" /></g><defs
     id="defs161"><filter
       id="filter0_f_140_13"
       x="-147"
       y="-105"
       width="664"
       height="482"
       filterUnits="userSpaceOnUse"
       color-interpolation-filters="sRGB"><feFlood
         flood-opacity="0"
         result="BackgroundImageFix"
         id="feFlood154" /><feBlend
         mode="normal"
         in="SourceGraphic"
         in2="BackgroundImageFix"
         result="shape"
         id="feBlend156" /><feGaussianBlur
         stdDeviation="60"
         result="effect1_foregroundBlur_140_13"
         id="feGaussianBlur158" /></filter><filter
       id="filter0_f_140_15"
       x="0"
       y="0"
       width="734"
       height="678"
       filterUnits="userSpaceOnUse"
       color-interpolation-filters="sRGB"><feFlood
         flood-opacity="0"
         result="BackgroundImageFix"
         id="feFlood402" /><feBlend
         mode="normal"
         in="SourceGraphic"
         in2="BackgroundImageFix"
         result="shape"
         id="feBlend404" /><feGaussianBlur
         stdDeviation="60"
         result="effect1_foregroundBlur_140_15"
         id="feGaussianBlur406" /></filter><filter
       id="filter0_f_140_94"
       x="0"
       y="0"
       width="734"
       height="678"
       filterUnits="userSpaceOnUse"
       color-interpolation-filters="sRGB"><feFlood
         flood-opacity="0"
         result="BackgroundImageFix"
         id="feFlood477" /><feBlend
         mode="normal"
         in="SourceGraphic"
         in2="BackgroundImageFix"
         result="shape"
         id="feBlend479" /><feGaussianBlur
         stdDeviation="60"
         result="effect1_foregroundBlur_140_94"
         id="feGaussianBlur481" /></filter></defs><g
     style="fill:none"
     id="g421"
     transform="translate(75.495763,69.949155)"><path
       fill-rule="evenodd"
       clip-rule="evenodd"
       d="m 591.209,352.001 c -11.036,34.668 -36.295,61.189 -59.172,89.461 -19.711,24.359 -40.717,46.073 -65.745,64.911 -27.878,20.983 -54.17,50.185 -89.019,51.573 -34.962,1.393 -64.322,-24.539 -93.206,-44.312 -27.156,-18.59 -46.492,-44.207 -69.901,-67.348 -32.04,-31.674 -87.333,-49.644 -93.6,-94.285 -6.059,-43.156 37.923,-76.651 64.787,-110.94 23.809,-30.39 50.385,-57.306 83.085,-77.799 33.577,-21.043 69.644,-48.243 108.835,-42.477 39.128,5.755 55.765,55.714 91.815,71.994 42.028,18.979 104.667,-7.199 132.748,29.413 26.867,35.03 2.768,87.727 -10.627,129.809 z"
       fill="#fffa82"
       id="path398"
       style="opacity:0.3;filter:url(#filter0_f_140_15)" /></g><g
     style="fill:none"
     id="g496"
     transform="matrix(0.3480826,0,0,0.3480826,322.73674,199.89407)"><path
       fill-rule="evenodd"
       clip-rule="evenodd"
       d="m 591.209,352.001 c -11.036,34.668 -36.295,61.189 -59.172,89.461 -19.711,24.359 -40.717,46.073 -65.745,64.911 -27.878,20.983 -54.17,50.185 -89.019,51.573 -34.962,1.393 -64.322,-24.539 -93.206,-44.312 -27.156,-18.59 -46.492,-44.207 -69.901,-67.348 -32.04,-31.674 -87.333,-49.644 -93.6,-94.285 -6.059,-43.156 37.923,-76.651 64.787,-110.94 23.809,-30.39 50.385,-57.306 83.085,-77.799 33.577,-21.043 69.644,-48.243 108.835,-42.477 39.128,5.755 55.765,55.714 91.815,71.994 42.028,18.979 104.667,-7.199 132.748,29.413 26.867,35.03 2.768,87.727 -10.627,129.809 z"
       fill="#ff9882"
       id="path473"
       style="opacity:0.3;filter:url(#filter0_f_140_94)" /></g></svg>
