<svg width="19" height="18" viewBox="0 0 19 18" fill="none" xmlns="http://www.w3.org/2000/svg">
<path d="M9.08887 3C10.7389 3 12.0889 4.35 12.0889 6C12.0889 7.575 10.5139 10.125 9.08887 11.925C7.66387 10.05 6.08887 7.575 6.08887 6C6.08887 4.35 7.43887 3 9.08887 3ZM9.08887 1.5C6.61387 1.5 4.58887 3.525 4.58887 6C4.58887 9.375 9.08887 14.25 9.08887 14.25C9.08887 14.25 13.5889 9.3 13.5889 6C13.5889 3.525 11.5639 1.5 9.08887 1.5ZM9.08887 4.5C8.26387 4.5 7.58887 5.175 7.58887 6C7.58887 6.825 8.26387 7.5 9.08887 7.5C9.91387 7.5 10.5889 6.825 10.5889 6C10.5889 5.175 9.91387 4.5 9.08887 4.5ZM15.0889 14.25C15.0889 15.9 12.3889 17.25 9.08887 17.25C5.78887 17.25 3.08887 15.9 3.08887 14.25C3.08887 13.275 3.98887 12.45 5.41387 11.85L5.86387 12.525C5.11387 12.9 4.58887 13.35 4.58887 13.875C4.58887 14.925 6.61387 15.75 9.08887 15.75C11.5639 15.75 13.5889 14.925 13.5889 13.875C13.5889 13.35 13.0639 12.9 12.2389 12.525L12.6889 11.85C14.1889 12.45 15.0889 13.275 15.0889 14.25Z" fill="#5B687C"/>
</svg>
