<svg width="17" height="16" viewBox="0 0 17 16" fill="none" xmlns="http://www.w3.org/2000/svg">
<path d="M13.8326 7.33118C13.5293 6.64846 13.0883 6.03568 12.5373 5.53118L12.0826 5.114C12.0672 5.10022 12.0486 5.09044 12.0285 5.08552C12.0084 5.0806 11.9874 5.0807 11.9673 5.08579C11.9473 5.09088 11.9288 5.10081 11.9135 5.11472C11.8982 5.12863 11.8865 5.14609 11.8795 5.16556L11.6764 5.74837C11.5498 6.114 11.317 6.48743 10.9873 6.85462C10.9654 6.87806 10.9404 6.88431 10.9232 6.88587C10.9061 6.88743 10.8795 6.88431 10.8561 6.86243C10.8342 6.84368 10.8232 6.81556 10.8248 6.78743C10.8826 5.84681 10.6014 4.78587 9.98574 3.63118C9.47637 2.67181 8.76855 1.92337 7.88418 1.4015L7.23887 1.02181C7.15449 0.971808 7.04668 1.03743 7.05137 1.13587L7.08574 1.88587C7.10918 2.39837 7.0498 2.8515 6.90918 3.22806C6.7373 3.689 6.49043 4.11712 6.1748 4.5015C5.95515 4.76863 5.7062 5.01024 5.43262 5.22181C4.77372 5.72832 4.23795 6.37733 3.86543 7.12025C3.49383 7.86964 3.30026 8.69471 3.2998 9.53118C3.2998 10.2687 3.44512 10.9827 3.73262 11.6562C4.01022 12.3046 4.41083 12.893 4.9123 13.389C5.41855 13.889 6.00605 14.2827 6.66074 14.5562C7.33887 14.8406 8.05762 14.9843 8.7998 14.9843C9.54199 14.9843 10.2607 14.8406 10.9389 14.5577C11.5919 14.2859 12.1858 13.8895 12.6873 13.3906C13.1936 12.8906 13.5904 12.3062 13.867 11.6577C14.1541 10.9861 14.3013 10.2631 14.2998 9.53274C14.2998 8.77024 14.1436 8.02962 13.8326 7.33118Z" fill="#EF4444"/>
</svg>
