<svg width="25" height="25" viewBox="0 0 25 25" fill="none" xmlns="http://www.w3.org/2000/svg">
<path d="M21.5724 11.1146V19.7827C21.5722 20.0546 21.4985 20.3213 21.3592 20.5547C21.2198 20.7881 21.02 20.9795 20.7807 21.1086C20.564 21.2259 20.3209 21.2858 20.0744 21.2826H15.5691C15.3702 21.2826 15.1794 21.2036 15.0388 21.063C14.8981 20.9223 14.8191 20.7315 14.8191 20.5326V16.032C14.8191 15.8331 14.7401 15.6423 14.5994 15.5016C14.4588 15.361 14.268 15.282 14.0691 15.282H11.0691C10.8702 15.282 10.6794 15.361 10.5388 15.5016C10.3981 15.6423 10.3191 15.8331 10.3191 16.032V20.5326C10.3191 20.7315 10.2401 20.9223 10.0994 21.063C9.95876 21.2036 9.768 21.2826 9.56908 21.2826H5.07255C4.8599 21.2832 4.64959 21.2383 4.45571 21.1509C4.26183 21.0635 4.08886 20.9358 3.9484 20.7761C3.70182 20.4909 3.56807 20.1254 3.57237 19.7484V11.1145C3.57253 10.9055 3.61628 10.6989 3.70081 10.5077C3.78535 10.3166 3.90882 10.1452 4.06333 10.0045L11.5627 3.18579C11.8382 2.93347 12.1982 2.79349 12.5717 2.79346C12.9453 2.79342 13.3053 2.93333 13.5808 3.18561L21.0815 10.0046C21.236 10.1453 21.3594 10.3167 21.4439 10.5079C21.5284 10.699 21.5722 10.9056 21.5724 11.1146Z" fill="#10B981"/>
</svg>
