<svg width="28" height="28" viewBox="0 0 28 28" fill="none" xmlns="http://www.w3.org/2000/svg">
<path d="M25.6045 10.7088C25.5312 10.4929 25.3962 10.3031 25.2163 10.1629C25.0363 10.0228 24.8192 9.93838 24.5919 9.92018L17.9407 9.39168L15.0625 3.02052C14.9709 2.81531 14.8218 2.64103 14.6333 2.51868C14.4447 2.39634 14.2248 2.33118 14.0001 2.33105C13.7753 2.33093 13.5554 2.39585 13.3667 2.51799C13.178 2.64012 13.0288 2.81425 12.9369 3.01935L10.0587 9.39168L3.40754 9.92018C3.18407 9.93789 2.97043 10.0196 2.79219 10.1555C2.61394 10.2915 2.47863 10.4759 2.40245 10.6867C2.32626 10.8975 2.31243 11.1259 2.36261 11.3443C2.41278 11.5628 2.52484 11.7622 2.68537 11.9187L7.60054 16.7102L5.86221 24.2375C5.80942 24.4654 5.82634 24.7038 5.91076 24.9219C5.99518 25.14 6.14321 25.3278 6.33564 25.4607C6.52807 25.5936 6.75601 25.6657 6.98989 25.6674C7.22376 25.6692 7.45277 25.6007 7.64721 25.4707L13.9997 21.2357L20.3522 25.4707C20.5509 25.6026 20.7853 25.6706 21.0238 25.6653C21.2623 25.6601 21.4934 25.582 21.6862 25.4414C21.8789 25.3009 22.024 25.1047 22.1019 24.8793C22.1799 24.6538 22.1869 24.4099 22.122 24.1803L19.9882 16.7137L25.2802 11.9514C25.6267 11.6387 25.7539 11.151 25.6045 10.7088Z" fill="#F59E0B"/>
</svg>
