<svg width="17" height="17" viewBox="0 0 17 17" fill="none" xmlns="http://www.w3.org/2000/svg">
<path d="M13.0823 5.10883H3.08232V4.70883L11.8823 4.00483V4.70883H13.0823V3.50883C13.0823 2.62883 12.3695 2.01123 11.4991 2.13523L3.46632 3.28243C2.59512 3.40723 1.88232 4.22883 1.88232 5.10883V13.1088C1.88232 13.5332 2.0509 13.9401 2.35095 14.2402C2.65101 14.5403 3.05798 14.7088 3.48232 14.7088H13.0823C13.5067 14.7088 13.9136 14.5403 14.2137 14.2402C14.5138 13.9401 14.6823 13.5332 14.6823 13.1088V6.70883C14.6823 6.28448 14.5138 5.87751 14.2137 5.57746C13.9136 5.2774 13.5067 5.10883 13.0823 5.10883ZM11.8823 10.7136C11.7247 10.7136 11.5686 10.6825 11.423 10.6221C11.2774 10.5617 11.1451 10.4733 11.0336 10.3618C10.9222 10.2503 10.8338 10.1179 10.7735 9.97223C10.7133 9.82657 10.6823 9.67047 10.6823 9.51283C10.6824 9.35519 10.7135 9.1991 10.7739 9.05348C10.8342 8.90787 10.9227 8.77556 11.0342 8.66413C11.1457 8.5527 11.2781 8.46433 11.4237 8.40405C11.5694 8.34377 11.7255 8.31277 11.8831 8.31283C12.2015 8.31293 12.5068 8.43951 12.7318 8.6647C12.9569 8.88989 13.0832 9.19526 13.0831 9.51363C13.083 9.83199 12.9564 10.1373 12.7313 10.3623C12.5061 10.5874 12.2007 10.7137 11.8823 10.7136Z" fill="#047857"/>
</svg>
